<?xml version="1.0" encoding="UTF-8" standalone="no"?>
<!-- Created with Inkscape (http://www.inkscape.org/) -->

<svg
   xmlns:dc="http://purl.org/dc/elements/1.1/"
   xmlns:cc="http://creativecommons.org/ns#"
   xmlns:rdf="http://www.w3.org/1999/02/22-rdf-syntax-ns#"
   xmlns:svg="http://www.w3.org/2000/svg"
   xmlns="http://www.w3.org/2000/svg"
   xmlns:sodipodi="http://sodipodi.sourceforge.net/DTD/sodipodi-0.dtd"
   xmlns:inkscape="http://www.inkscape.org/namespaces/inkscape"
   width="21.299774mm"
   height="159.80168mm"
   viewBox="0 0 21.299774 159.80168"
   version="1.1"
   id="svg7245"
   inkscape:version="0.92.2 5c3e80d, 2017-08-06"
   sodipodi:docname="attributes_background.svg">
  <defs
     id="defs7239" />
  <sodipodi:namedview
     id="base"
     pagecolor="#ffffff"
     bordercolor="#666666"
     borderopacity="1.0"
     inkscape:pageopacity="0.0"
     inkscape:pageshadow="2"
     inkscape:zoom="0.98994949"
     inkscape:cx="177.97695"
     inkscape:cy="276.09494"
     inkscape:document-units="mm"
     inkscape:current-layer="layer1"
     showgrid="false"
     fit-margin-top="0"
     fit-margin-left="0"
     fit-margin-right="0"
     fit-margin-bottom="0"
     inkscape:window-width="1680"
     inkscape:window-height="1002"
     inkscape:window-x="0"
     inkscape:window-y="22"
     inkscape:window-maximized="1" />
  <metadata
     id="metadata7242">
    <rdf:RDF>
      <cc:Work
         rdf:about="">
        <dc:format>image/svg+xml</dc:format>
        <dc:type
           rdf:resource="http://purl.org/dc/dcmitype/StillImage" />
        <dc:title></dc:title>
      </cc:Work>
    </rdf:RDF>
  </metadata>
  <g
     inkscape:label="Layer 1"
     inkscape:groupmode="layer"
     id="layer1"
     transform="translate(-76.284601,-53.057511)">
    <path
       d="m 79.056438,55.941536 c 0.369711,-0.118534 0.768703,-0.194028 1.205089,-0.194028 h 1.567039 c 0.208491,0.204964 0.42933,0.392289 0.656872,0.568678 -0.820209,-0.251178 -2.175228,-0.561975 -3.429,-0.37465 m -2.465211,1.852436 c -0.118181,0.155928 -0.219781,0.303389 -0.306564,0.43815 v 3.270602 l 0.414161,-1.540933 c -0.261761,-0.857955 -0.195791,-1.672166 -0.107597,-2.167819 m 20.403255,2.139597 c 0.333022,-1.067153 0.126647,-2.093031 0.03598,-2.443692 -0.312208,-0.365125 -0.702733,-0.742244 -1.177925,-1.053041 -1.715911,-0.830086 -4.230158,-0.03246 -4.955469,0.230364 -1.170164,0.763058 -2.534356,1.175808 -3.9624,1.175808 -1.42875,0 -2.793294,-0.41275 -3.963458,-1.176161 -0.727075,-0.26282 -3.246261,-1.062214 -4.961467,-0.226484 -0.472016,0.309387 -0.860072,0.684037 -1.170869,1.047398 -0.08996,0.348897 -0.297744,1.37795 0.03563,2.445808 l 0.0081,0.02469 -0.0071,0.02434 -0.590903,2.198158 V 203.73672 l 0.597606,2.2218 -0.0081,0.0243 c -0.333023,1.06751 -0.126648,2.09338 -0.03598,2.44404 0.312209,0.36513 0.702734,0.7419 1.177925,1.05269 1.715911,0.83044 4.230158,0.0325 4.95547,-0.23001 1.170163,-0.76306 2.534355,-1.17581 3.962399,-1.17581 1.42875,0 2.793295,0.41275 3.963459,1.17616 0.727075,0.26282 3.246613,1.06222 4.961466,0.22649 0.472017,-0.30939 0.860072,-0.68404 1.17087,-1.0474 0.08996,-0.3489 0.297744,-1.37795 -0.03563,-2.44616 l -0.0081,-0.0243 0.0071,-0.0243 0.591255,-2.19816 V 62.180058 l -0.598017,-2.221795 z m -3.160889,-5.424664 h 1.117247 l -0.254353,-0.338666 h -2.850444 c -0.0829,-0.0028 -0.162278,-0.0127 -0.246592,-0.0127 v 0.0127 h -1.746602 c 0.123119,0.106186 0.239183,0.220133 0.349955,0.338666 h 2.947458 c 2.187928,0.484011 3.739798,1.870781 4.434064,2.609145 v 0.646994 c -0.699911,-0.964142 -2.01295,-2.282119 -3.976864,-2.282119 h -4.381147 c -0.04762,-0.08537 -0.135466,-0.145698 -0.239889,-0.145698 -0.153105,0 -0.277988,0.124884 -0.277988,0.277989 0,0.153459 0.124883,0.277989 0.277988,0.277989 0.104423,0 0.192264,-0.06033 0.239889,-0.145697 h 2.420056 c -1.293989,1.17863 -2.951692,1.830917 -4.7117,1.830917 -1.760008,0 -3.417358,-0.652287 -4.7117,-1.830917 h 2.419703 c 0.04763,0.08537 0.135467,0.145697 0.239889,0.145697 0.153105,0 0.277989,-0.12453 0.277989,-0.277989 0,-0.153105 -0.124884,-0.277989 -0.277989,-0.277989 -0.104422,0 -0.192264,0.06032 -0.239889,0.145698 h -4.381147 c -1.964267,0 -3.277658,1.318683 -3.976864,2.282472 v -0.646995 c 0.693208,-0.738364 2.242961,-2.124427 4.430536,-2.608791 h 2.95028 c 0.110773,-0.119239 0.226837,-0.232834 0.349603,-0.339372 h -1.745544 v -0.0127 c -0.08396,0 -0.163689,0.0099 -0.246592,0.0127 h -2.850797 l -0.254705,0.339372 h 1.116541 c -1.774119,0.559505 -3.067402,1.659466 -3.749322,2.35585 V 55.97258 c 0,0 1.286228,-0.765528 1.614311,-1.462969 h 0.687917 l 0.452966,-0.603956 h 2.572809 c 0.996244,-0.125941 2.252838,-0.358775 2.847269,-0.770466 0,0 0.422628,-0.25647 0.422628,0.16263 0,0.256117 -0.966259,0.475545 -1.715911,0.607836 h 0.960614 c 0.03598,-0.03492 0.08396,-0.0568 0.137936,-0.0568 0.04198,0 0.07832,0.01588 0.110772,0.03845 0.725311,-0.509764 1.606197,-0.811389 2.557991,-0.811389 0.951795,0 1.833034,0.301625 2.558698,0.811389 0.0321,-0.02258 0.06879,-0.03845 0.110772,-0.03845 0.05398,0 0.102305,0.02187 0.137936,0.0568 h 0.960614 c -0.749653,-0.132291 -1.715911,-0.351719 -1.715911,-0.607836 0,-0.4191 0.422627,-0.16263 0.422627,-0.16263 0.594431,0.411691 1.851025,0.644525 2.84727,0.770466 h 2.572808 l 0.452261,0.60325 h 0.688622 c 0.328084,0.698147 1.614664,1.46297 1.614664,1.46297 v 0.893233 c -0.682625,-0.696736 -1.976614,-1.796697 -3.750733,-2.356203 m -4.17195,-0.274814 c -0.01834,0.006 -0.03739,0.01164 -0.05821,0.01164 -0.109361,0 -0.198261,-0.0889 -0.198261,-0.198261 0,-0.0018 0.0011,-0.0032 0.0011,-0.0049 -0.699911,-0.496005 -1.551517,-0.790222 -2.472267,-0.790222 -0.920397,0 -1.772002,0.294217 -2.471561,0.789869 0,0.0018 0.0011,0.0035 0.0011,0.0053 0,0.109362 -0.0889,0.198262 -0.198261,0.198262 -0.02081,0 -0.03986,-0.0056 -0.05856,-0.01164 -0.10548,0.08678 -0.206375,0.178858 -0.303389,0.275166 h 0.321339 c 0.72002,-0.64382 1.667228,-1.038578 2.709333,-1.038578 1.042106,0 1.989667,0.394758 2.709686,1.038578 h 0.321028 c -0.09666,-0.09631 -0.197555,-0.188383 -0.303036,-0.275167 m 7.508522,5.7277 0.414161,1.539522 v -3.269191 c -0.08714,-0.134056 -0.18803,-0.281517 -0.306211,-0.436739 0.08784,0.496005 0.153811,1.309511 -0.10795,2.166408 m -3.562703,-4.214283 h -1.568097 c -0.208139,0.205317 -0.42933,0.392289 -0.656872,0.56903 0.820208,-0.250825 2.175228,-0.561622 3.429706,-0.375002 -0.369712,-0.118181 -0.76835,-0.194028 -1.204737,-0.194028 M 93.60716,210.16896 c 0.436386,0 0.835377,-0.0751 1.205088,-0.19367 -1.253772,0.18732 -2.608438,-0.12348 -3.429,-0.37501 0.227542,0.17639 0.448381,0.36372 0.656873,0.56868 z m 3.6703,-2.04611 c 0.11818,-0.15628 0.21978,-0.30374 0.306916,-0.4385 v -3.27025 l -0.414514,1.54093 c 0.261761,0.85796 0.195792,1.67181 0.107598,2.16782 m 0.306916,0.0286 v 0.647 c -0.693561,0.73801 -2.243314,2.12407 -4.430889,2.60844 h -2.950289 c -0.110772,0.11959 -0.226836,0.23283 -0.349603,0.33972 h 1.745545 v 0.0124 c 0.08396,0 0.164041,-0.01 0.246591,-0.0124 h 2.850797 l 0.254706,-0.33972 h -1.116189 c 1.773767,-0.55951 3.06705,-1.65912 3.749322,-2.35585 v 0.89323 c 0,0 -1.28658,0.76553 -1.614664,1.46262 h -0.687916 l -0.452967,0.60431 h -2.572808 c -0.996245,0.12594 -2.252839,0.35877 -2.84727,0.77046 0,0 -0.422627,0.25612 -0.422627,-0.16263 0,-0.25647 0.966258,-0.47589 1.715911,-0.60783 h -0.960614 c -0.03563,0.0349 -0.08396,0.0564 -0.137936,0.0564 -0.04198,0 -0.07832,-0.0159 -0.110772,-0.0381 -0.725312,0.50941 -1.606198,0.81139 -2.557992,0.81139 -0.951794,0 -1.833033,-0.30198 -2.558697,-0.81139 -0.0321,0.0222 -0.06879,0.0381 -0.110772,0.0381 -0.05398,0 -0.101953,-0.0215 -0.137936,-0.0564 h -0.960614 c 0.749652,0.13194 1.715911,0.35136 1.715911,0.60783 0,0.41875 -0.422628,0.16263 -0.422628,0.16263 -0.594431,-0.41169 -1.851025,-0.64452 -2.847269,-0.77046 h -2.572809 l -0.452261,-0.60364 h -0.688622 c -0.328083,-0.69779 -1.614311,-1.46261 -1.614311,-1.46261 v -0.89359 c 0.682272,0.69709 1.976261,1.7967 3.75038,2.3562 h -1.117247 l 0.254353,0.33902 h 2.850444 c 0.08326,0.003 0.162278,0.0124 0.246592,0.0124 v -0.0124 h 1.746603 c -0.12312,-0.10654 -0.239184,-0.22013 -0.349956,-0.33902 h -2.947458 c -2.187928,-0.48365 -3.739797,-1.87078 -4.433711,-2.60879 v -0.64699 c 0.699558,0.96414 2.012597,2.28176 3.976511,2.28176 h 4.381147 c 0.04762,0.0857 0.135467,0.14605 0.239889,0.14605 0.153106,0 0.277989,-0.12488 0.277989,-0.27834 0,-0.1531 -0.124883,-0.27799 -0.277989,-0.27799 -0.104422,0 -0.192264,0.0603 -0.239889,0.1457 h -2.419703 c 1.293989,-1.17828 2.951339,-1.83056 4.711347,-1.83056 1.760009,0 3.417711,0.65228 4.712053,1.83056 h -2.420055 c -0.04763,-0.0854 -0.135467,-0.1457 -0.239889,-0.1457 -0.153106,0 -0.277989,0.12489 -0.277989,0.27799 0,0.15346 0.124883,0.27834 0.277989,0.27834 0.104422,0 0.192264,-0.0603 0.239889,-0.14605 h 4.381147 c 1.964266,0 3.277658,-1.31833 3.977216,-2.28212 m -7.618941,3.25579 h -0.321381 c -0.720019,0.64382 -1.667227,1.03893 -2.709333,1.03893 -1.042106,0 -1.989667,-0.39511 -2.709686,-1.03893 h -0.321028 c 0.09666,0.0967 0.197556,0.18838 0.303036,0.27517 0.01834,-0.006 0.03739,-0.0116 0.05821,-0.0116 0.109361,0 0.198261,0.0889 0.198261,0.19861 0,0 -0.0011,0.003 -0.0011,0.005 0.699911,0.49635 1.551517,0.79057 2.472267,0.79057 0.920397,0 1.772003,-0.29422 2.471561,-0.79022 0,-0.001 -0.0011,-0.003 -0.0011,-0.003 0,-0.11148 0.0889,-0.20038 0.198261,-0.20038 0.02082,0 0.03986,0.006 0.05856,0.0116 0.10548,-0.0868 0.206375,-0.17851 0.303389,-0.27517 m -13.266869,-5.45276 -0.413808,-1.53952 v 3.26884 c 0.08678,0.13405 0.187678,0.28151 0.305858,0.43709 -0.08784,-0.49636 -0.153811,-1.30951 0.10795,-2.16641 m 5.1308,4.21393 c 0.208139,-0.20532 0.429331,-0.39229 0.656872,-0.56903 -0.820208,0.25118 -2.175227,0.56198 -3.429705,0.37536 0.369711,0.11818 0.76835,0.19367 1.204736,0.19367 z"
       style="fill:#deddde;fill-opacity:1;fill-rule:nonzero;stroke:none;stroke-width:0.35277775"
       id="path5038"
       inkscape:connector-curvature="0" />
  </g>
</svg>
