<?xml version="1.0" encoding="UTF-8" standalone="no"?>
<!-- Created with Inkscape (http://www.inkscape.org/) -->

<svg
   xmlns:dc="http://purl.org/dc/elements/1.1/"
   xmlns:cc="http://creativecommons.org/ns#"
   xmlns:rdf="http://www.w3.org/1999/02/22-rdf-syntax-ns#"
   xmlns:svg="http://www.w3.org/2000/svg"
   xmlns="http://www.w3.org/2000/svg"
   xmlns:sodipodi="http://sodipodi.sourceforge.net/DTD/sodipodi-0.dtd"
   xmlns:inkscape="http://www.inkscape.org/namespaces/inkscape"
   width="204.7502mm"
   height="240.10176mm"
   viewBox="0 0 204.7502 240.10176"
   version="1.1"
   id="svg6869"
   inkscape:version="0.92.2 5c3e80d, 2017-08-06"
   sodipodi:docname="attribute_container.svg">
  <defs
     id="defs6863" />
  <sodipodi:namedview
     id="base"
     pagecolor="#ffffff"
     bordercolor="#666666"
     borderopacity="1.0"
     inkscape:pageopacity="0.0"
     inkscape:pageshadow="2"
     inkscape:zoom="0.35"
     inkscape:cx="398.35619"
     inkscape:cy="442.98322"
     inkscape:document-units="mm"
     inkscape:current-layer="layer1"
     showgrid="false"
     fit-margin-top="0"
     fit-margin-left="0"
     fit-margin-right="0"
     fit-margin-bottom="0"
     inkscape:window-width="1680"
     inkscape:window-height="1002"
     inkscape:window-x="0"
     inkscape:window-y="22"
     inkscape:window-maximized="1" />
  <metadata
     id="metadata6866">
    <rdf:RDF>
      <cc:Work
         rdf:about="">
        <dc:format>image/svg+xml</dc:format>
        <dc:type
           rdf:resource="http://purl.org/dc/dcmitype/StillImage" />
        <dc:title></dc:title>
      </cc:Work>
    </rdf:RDF>
  </metadata>
  <g
     inkscape:label="Layer 1"
     inkscape:groupmode="layer"
     id="layer1"
     transform="translate(-0.43492536,-25.937554)">
    <path
       d="M 11.855858,60.357757 C 9.3912541,54.398043 8.2224391,41.7559 8.2224391,41.7559 l 0.08719,-1.072467 1.584069,-0.492638 C 13.615619,39.037348 24.216151,34.400344 24.216151,28.413711 V 25.937554 H 181.38982 v 2.476157 c 0,5.986633 10.60053,10.623637 14.31471,11.777084 l 1.58799,0.492638 0.0981,1.072467 c 0,0 -1.17274,12.642143 -3.63734,18.601857 l -1.10734,-15.971915 c -4.1023,-1.50723 -14.07614,-5.894319 -15.92167,-13.488018 H 28.882256 C 27.032795,38.491523 17.062882,42.878612 12.960368,44.385842 Z M 6.2999541,226.72468 v 0.008 c 0.211442,0 0.46103,0.0196 0.687731,0.0349 0.203812,-2.81449 0.410894,-6.00195 0.603807,-9.49316 -2.8760427,-4.49099 -5.1022841,-9.54325 -5.5751942,-14.87619 -0.5841895,-6.62869 1.6380193,-12.76906 6.5363822,-18.27887 0,-0.97274 -0.0109,-1.96477 -0.0218,-2.94907 0,0 -3.4873711,-65.09489 -6.6863534,-75.4878 l -0.415252,-1.33832 1.1919208,-0.7346 c 0.054495,-0.0327 2.8298312,-1.79562 5.5559036,-4.710023 0,0 2.8683049,-2.564548 3.9333609,-5.655956 1.176553,-2.530216 1.764884,-5.40626 1.049579,-8.501374 -0.11553,-0.272476 -1.461019,-3.429715 -2.822202,-7.49005 l -0.6419549,7.209291 c 0.6724719,1.991693 1.2535009,4.121805 1.7956199,6.29802 -0.760754,1.545704 -2.1877679,3.991125 -3.9526519,5.113837 C 6.7857251,92.22442 5.9239368,88.714052 4.835884,85.57654 L 4.6549596,85.068644 7.7731801,50.260325 c -0.0436,5.206153 3.5065529,16.506404 3.5065529,16.506404 1.176554,7.116976 5.163756,16.490928 5.294544,16.85234 1.395734,5.909687 -0.641954,10.992789 -3.414347,14.868494 4.164094,23.419517 0.11117,106.970177 -0.419614,116.686347 -1.926299,-2.46076 -3.6834449,-6.42106 -4.6331889,-8.78954 0.196183,-5.05995 0.330241,-10.52746 0.399995,-16.19491 -2.268529,3.7219 -3.2604527,7.70142 -2.8914106,11.88472 0.4196137,4.8331 2.5377366,9.50086 5.2945435,13.67263 0.134059,0.20762 0.261578,0.38833 0.384737,0.56904 0.372748,0.54985 0.757485,1.08816 1.145709,1.61873 0.08719,0.11531 0.135148,0.17689 0.135148,0.17689 v 0.008 c 6.067287,8.13206 13.934118,13.8841 14.526155,14.31089 2.98754,1.57258 5.944345,3.40662 8.81265,5.33294 h 0.0436 l 0.638685,0.4498 c 1.999432,1.36496 3.933361,2.7722 5.794375,4.1833 l 0.46103,0.32294 h -0.0327 -6.086579 -4.729209 -11.454147 c -0.311713,2.00706 -0.296454,7.91675 9.92381,10.06991 0,0 1.464942,5.10994 16.625531,8.67035 15.160697,3.55658 3.118329,-15.09909 -1.495678,-18.74026 l 0.0436,-0.0382 -6.232626,-4.91767 h 5.848108 c -1.322601,-3.92208 -2.010876,-7.42482 -2.226133,-10.52385 -2.07627,2.83372 -6.513385,7.09392 -13.16508,4.54472 1.511045,0.42681 7.693753,1.33035 13.257395,-10.32752 l 0.0218,0.0534 c 1.111159,-9.24708 6.367229,-13.44577 6.367229,-13.44577 -5.456068,10.7274 -4.194938,20.25133 -2.4185,26.00337 0.0327,0.0425 1.134265,1.58027 3.37195,1.61487 -1.353336,-3.41046 -2.118559,-6.99395 -2.118559,-10.70817 0,-21.60859 24.430776,-39.18768 54.452124,-39.18768 30.02516,0 54.45213,17.57909 54.45213,39.18768 0,3.71422 -0.77275,7.29771 -2.11856,10.70817 2.23387,-0.0349 3.34121,-1.57258 3.37587,-1.61487 1.77252,-5.75204 3.03365,-15.27597 -2.42231,-26.00337 0,0 5.25988,4.19869 6.36723,13.44577 l 0.0218,-0.0534 c 5.55591,11.65787 11.74635,10.75432 13.26121,10.32752 -6.6518,2.5492 -11.09262,-1.711 -13.17282,-4.54472 -0.21144,3.09903 -0.90026,6.60177 -2.22231,10.52362 h 5.84429 l -6.27884,4.95612 c -4.60616,3.64117 -16.64853,22.29685 -1.49175,18.74027 15.16059,-3.56042 16.62553,-8.67035 16.62553,-8.67035 10.22756,-2.15317 10.23901,-8.06285 9.92762,-10.06992 h -11.43104 -4.66392 -6.0904 -0.0218 l 0.45013,-0.32293 c 1.86864,-1.41111 3.80268,-2.81835 5.80593,-4.1833 l 0.63432,-0.44992 h 0.0436 c 2.86449,-1.92632 5.82118,-3.76036 8.81254,-5.33294 0.58855,-0.4268 8.45505,-6.17882 14.51471,-14.31088 v -0.008 c 0,0 0.0545,-0.061 0.13406,-0.17689 0.39236,-0.53056 0.78037,-1.06887 1.14963,-1.61871 0.12643,-0.18071 0.25395,-0.36142 0.39237,-0.56904 2.74917,-4.17176 4.86773,-8.83953 5.29443,-13.67262 0.36185,-4.18331 -0.62343,-8.16283 -2.89904,-11.88472 0.0654,5.66744 0.20381,11.13495 0.40327,16.1949 -0.95367,2.36849 -2.71071,6.32878 -4.63701,8.78955 -0.52642,-9.71618 -4.57935,-93.26684 -0.41525,-116.686446 -2.76836,-3.875705 -4.80616,-8.958698 -3.41435,-14.868385 0.12643,-0.361848 4.11407,-9.735364 5.29062,-16.85234 0,0 3.54514,-11.30036 3.50666,-16.506404 l 3.12204,34.808319 -0.17657,0.507896 c -1.08772,3.137403 -1.95322,6.64788 -2.70678,10.296775 -1.7687,-1.122821 -3.18743,-3.568133 -3.95265,-5.113837 0.54168,-2.176215 1.12271,-4.306327 1.79562,-6.29802 l -0.64958,-7.209291 c -1.35726,4.060335 -2.69534,7.217029 -2.81447,7.489941 -0.7226,3.095223 -0.12643,5.971267 1.04958,8.501265 1.06484,3.091299 3.92955,5.655847 3.92955,5.655847 2.7337,2.91451 5.50206,4.67547 5.56353,4.71002 l 1.18811,0.7346 -0.41526,1.33797 c -3.19898,10.3929 -6.69017,75.48784 -6.69017,75.48784 0,0.98429 -0.0109,1.9763 -0.0109,2.94906 4.89465,5.50982 7.11316,11.65019 6.52875,18.27888 -0.47302,5.33294 -2.69534,10.3852 -5.5752,14.87609 0.19619,3.49121 0.40327,6.67867 0.59945,9.49318 0.23433,-0.0153 0.48392,-0.0349 0.69972,-0.0349 l -0.008,-0.008 c 3.76421,-0.30376 7.06325,1.7802 5.45989,4.41399 -1.59562,2.62995 -4.32562,2.91831 -4.32562,2.91831 0,0 1.02669,-0.66135 1.8802,-2.16854 0.42724,-0.75356 0.0981,-1.10734 -0.34223,-1.27268 -0.32262,-0.0534 -0.63106,-0.1079 -0.96893,-0.14223 h -0.008 c -0.69645,-0.061 -1.41491,-0.0774 -2.11474,-0.0687 0.45013,5.84432 0.81089,9.38166 0.8305,9.57391 l 0.29646,2.74145 h -9.86997 c -4.59853,17.54064 -36.61538,23.31959 -36.61538,23.31959 -5.8674,-5.17915 -12.38841,-3.62963 -12.38841,-3.62963 5.21367,-2.7722 6.52101,-8.80108 6.52101,-8.80108 l -7.23621,1.71869 c -3.09522,0.77285 -7.21311,2.44539 -9.66234,6.13269 l -19.94757,2.28005 0.16567,-0.0654 c -2.67615,0.28839 -5.39449,0.48828 -8.1744,0.48828 -2.78373,0 -5.498252,-0.19989 -8.174299,-0.48828 l 0.161306,0.0654 -19.94364,-2.28005 c -2.48008,-3.72191 -6.655618,-5.3983 -9.754656,-6.1596 v 0.0272 l -7.232391,-1.71868 c 0,0 1.299604,6.02886 6.517195,8.80107 0,0 -6.524824,-1.54952 -12.388408,3.62963 0,0 -32.016852,-5.77896 -36.619197,-23.31959 H 5.6060113 l 0.288825,-2.74145 c 0.021798,-0.19226 0.3880068,-3.7296 0.8381378,-9.57391 -0.7073491,-0.008 -1.4265779,0.008 -2.1224827,0.0698 h -0.00763 c -0.3378708,0.0349 -0.6495838,0.0883 -0.9645665,0.14224 -0.4381421,0.16534 -0.7727432,0.51912 -0.3455002,1.27268 0.8501265,1.50722 1.8840111,2.16854 1.8840111,2.16854 0,0 -2.7260722,-0.28839 -4.3294325,-2.91831 -1.595622,-2.63379 1.6956753,-4.71774 5.4598828,-4.414 M 194.51348,150.0256 c 1.35726,-14.30704 3.16814,-35.90029 5.44059,-44.1208 -0.81089,-0.58092 -1.96477,-1.47257 -3.22983,-2.63375 -1.98014,13.40355 -2.33773,35.43888 -2.21076,46.75455 m -5.42915,78.0793 c 1.55344,-0.41907 3.06449,-0.69209 4.55243,-0.87661 -0.0872,-1.17272 -0.17657,-2.4377 -0.25722,-3.74498 -1.43802,1.68409 -2.89904,3.24514 -4.29477,4.62162 m -12.68443,9.65851 h 18.11728 c -0.1613,-1.6764 -0.37711,-4.06411 -0.60381,-6.99011 -5.4213,0.6498 -11.54243,3.39892 -17.51369,6.99011 m -25.10358,4.95613 c -1.95333,2.75682 -4.32562,5.32141 -7.09017,7.65529 5.14458,0.16152 9.33559,-4.59087 11.48489,-7.65529 z M 53.773304,224.97512 c 0,4.52934 1.314972,8.83952 3.675707,12.79597 0.473019,0.78822 0.999444,1.55335 1.568811,2.31082 0.0545,0.085 0.11117,0.17307 0.173295,0.26146 0.615796,0.80741 1.276497,1.60334 1.972511,2.37617 8.65875,9.60083 24.06544,16.03343 41.648452,16.03343 17.58291,0 32.9896,-6.4326 41.64454,-16.03343 0.70408,-0.77285 1.36118,-1.56873 1.97251,-2.37617 0.0654,-0.0883 0.1188,-0.17689 0.18092,-0.26146 0.5613,-0.75749 1.08773,-1.5226 1.56107,-2.31082 2.35693,-3.9526 3.67953,-8.26663 3.67953,-12.79597 0,-18.62108 -21.99692,-33.774 -49.03835,-33.774 -27.041543,0 -49.038451,15.15292 -49.038451,33.774 m 7.65528,25.40355 c -2.772175,-2.33389 -5.144573,-4.90231 -7.105422,-7.65914 h -4.483218 c 2.160847,3.0798 6.394149,7.88215 11.58864,7.65914 m -49.44597,-23.15041 c 1.487939,0.18452 3.002908,0.45754 4.560056,0.87661 -1.403363,-1.37649 -2.860566,-2.93754 -4.298588,-4.62163 -0.07629,1.30729 -0.168935,2.57227 -0.261577,3.74498 m -0.876285,10.53515 h 18.113579 c -5.967342,-3.59118 -12.092395,-6.34032 -17.506065,-6.99011 -0.23433,2.92601 -0.450131,5.31372 -0.607078,6.99011 m 0.0077,-87.7378 c 0.126429,-11.31567 -0.23869,-33.35108 -2.2146889,-46.75452 -1.264944,1.16118 -2.418501,2.05316 -3.2297174,2.63375 2.2685294,8.22051 4.0755934,29.81373 5.4444063,44.12077"
       style="fill:#231f20;fill-opacity:1;fill-rule:nonzero;stroke:none;stroke-width:3.84494495"
       id="path5642"
       inkscape:connector-curvature="0" />
  </g>
</svg>
