<?xml version="1.0" encoding="UTF-8" standalone="no"?>
<!-- Created with Inkscape (http://www.inkscape.org/) -->

<svg
   xmlns:dc="http://purl.org/dc/elements/1.1/"
   xmlns:cc="http://creativecommons.org/ns#"
   xmlns:rdf="http://www.w3.org/1999/02/22-rdf-syntax-ns#"
   xmlns:svg="http://www.w3.org/2000/svg"
   xmlns="http://www.w3.org/2000/svg"
   xmlns:xlink="http://www.w3.org/1999/xlink"
   xmlns:sodipodi="http://sodipodi.sourceforge.net/DTD/sodipodi-0.dtd"
   xmlns:inkscape="http://www.inkscape.org/namespaces/inkscape"
   width="81.855629mm"
   height="30.375652mm"
   viewBox="0 0 81.855629 30.375653"
   version="1.1"
   id="svg1974"
   inkscape:version="0.92.2 5c3e80d, 2017-08-06"
   sodipodi:docname="character_name_ribbon.svg">
  <defs
     id="defs1968" />
  <sodipodi:namedview
     id="base"
     pagecolor="#ffffff"
     bordercolor="#666666"
     borderopacity="1.0"
     inkscape:pageopacity="0.0"
     inkscape:pageshadow="2"
     inkscape:zoom="2.8284271"
     inkscape:cx="58.939943"
     inkscape:cy="55.999273"
     inkscape:document-units="mm"
     inkscape:current-layer="layer1"
     showgrid="false"
     fit-margin-top="0"
     fit-margin-left="0"
     fit-margin-right="0"
     fit-margin-bottom="0"
     inkscape:window-width="1680"
     inkscape:window-height="1002"
     inkscape:window-x="0"
     inkscape:window-y="22"
     inkscape:window-maximized="1" />
  <metadata
     id="metadata1971">
    <rdf:RDF>
      <cc:Work
         rdf:about="">
        <dc:format>image/svg+xml</dc:format>
        <dc:type
           rdf:resource="http://purl.org/dc/dcmitype/StillImage" />
        <dc:title />
      </cc:Work>
    </rdf:RDF>
  </metadata>
  <g
     inkscape:label="Layer 1"
     inkscape:groupmode="layer"
     id="layer1"
     transform="translate(-43.5112,-136.36037)">
    <path
       d="m 44.027596,164.73997 12.249855,-1.73744 m -12.249855,-9.62448 12.249855,-1.55857"
       style="fill:none;stroke:#231f20;stroke-width:0.26458332;stroke-linecap:butt;stroke-linejoin:miter;stroke-miterlimit:10;stroke-dasharray:none;stroke-opacity:1"
       id="path187-7"
       inkscape:connector-curvature="0" />
    <path
       d="m 63.739619,138.11375 c -0.152048,0.98777 0.07761,2.23661 0.07761,2.23661 0,0 -0.723195,-0.52917 -1.513417,-0.9772 -0.469194,-0.26458 -0.867833,-0.85372 -1.11513,-1.28764 -0.168981,-0.29986 -0.267759,-0.52211 -0.267759,-0.52211 -1.097491,1.17828 -0.388408,2.5647 -0.388408,2.5647 -1.710619,-0.37395 -2.779889,0.067 -2.779889,0.067 3.238853,2.1202 1.517297,2.29306 -0.352778,3.17853 -1.866194,0.88547 -2.003425,1.98614 -2.003425,1.98614 2.233084,-0.73378 3.121731,0.20461 3.121731,0.20461 -1.202619,1.15006 -0.130175,2.9457 -0.130175,2.9457 1.167694,2.23661 4.060472,3.18911 6.649861,3.58069 2.564341,0.39158 4.833055,0.23636 4.833055,0.23636 l -5.898797,1.83445 -5.298369,1.33702 c 0,0 -5.260269,-0.56444 -7.193139,-5.0165 -1.930047,-4.45558 1.442861,-7.96219 1.104195,-8.1915 -0.321028,-0.21872 -0.73025,0.26812 -0.772936,0.32103 1.467908,-4.20158 5.888213,-4.15572 6.064602,-4.60022 0.179917,-0.44803 -0.871714,-0.47625 -0.871714,-0.47625 4.470047,-1.47108 6.734881,0.57856 6.734881,0.57856"
       style="fill:#231f20;fill-opacity:1;fill-rule:nonzero;stroke:none;stroke-width:0.35277775"
       id="path159"
       inkscape:connector-curvature="0" />
    <path
       d="m 43.753735,152.493 v 13.22917 l 12.523611,-1.63654 v -13.22952 z"
       style="fill:#ffffff;fill-opacity:1;fill-rule:nonzero;stroke:none;stroke-width:0.35277775"
       id="path179"
       inkscape:connector-curvature="0" />
    <path
       d="m 44.027596,164.73996 12.249856,-1.73742 m -12.249856,-9.62449 12.249856,-1.55857"
       style="fill:none;stroke:#231f20;stroke-width:0.26458332;stroke-linecap:butt;stroke-linejoin:miter;stroke-miterlimit:10;stroke-dasharray:none;stroke-opacity:1"
       id="path187"
       inkscape:connector-curvature="0" />
    <path
       d="m 56.277346,150.85657 -8.543925,-1.264 v 13.22917 l 8.543925,1.264 z"
       style="fill:#deddde;fill-opacity:1;stroke:#231f20;stroke-width:0.48506942;stroke-linecap:butt;stroke-linejoin:miter;stroke-miterlimit:10;stroke-dasharray:none;stroke-opacity:1"
       id="path195"
       inkscape:connector-curvature="0" />
    <path
       d="m 125.31532,161.54362 c 0,0 -7.23194,3.05717 -40.451614,0.11748 -23.463251,-2.07645 -35.178295,-0.25647 -36.990868,0.061 m 77.132742,-11.09874 c 0,0 -7.0104,2.83562 -40.230074,-0.10407 -23.463246,-2.07645 -35.17829,-0.25612 -36.990862,0.061"
       style="fill:none;stroke:#231f20;stroke-width:0.26458332;stroke-linecap:butt;stroke-linejoin:miter;stroke-miterlimit:10;stroke-dasharray:none;stroke-opacity:1"
       id="path207"
       inkscape:connector-curvature="0" />
    <path
       d="m 60.095354,142.2942 c 0.179916,-0.635 -1.054806,-1.76742 -1.520825,-1.98614 1.743075,-0.0176 2.600325,0.33514 2.600325,0.33514 -0.433917,-0.68086 -0.550334,-1.71097 -0.264584,-2.51531 0.878417,2.30364 4.261556,2.77636 5.04437,4.69195 l -0.162278,0.97719 c -1.337028,-0.17286 -3.308703,0.22578 -4.303536,1.32997 0.345722,0.0106 1.23825,0.20461 1.583619,0.32809 -1.506008,0.22577 -3.580341,1.55222 -4.201583,2.19075 0.183797,-0.86078 0.448381,-1.58398 0.261408,-2.10961 -0.264583,-0.74084 -1.146527,-1.0795 -2.928055,-0.76553 1.231194,-1.16064 3.704166,-1.82739 3.891139,-2.4765"
       style="fill:#231f20;fill-opacity:1;fill-rule:nonzero;stroke:none;stroke-width:0.35277775"
       id="path255"
       inkscape:connector-curvature="0" />
    <path
       d="m 46.869609,148.54387 c 0,0 0.07408,2.26483 0.306917,2.46591 l 0.853722,0.36337 0.02469,0.77258 c 0,0 -1.524,-0.48331 -1.651,-1.06539 -0.127,-0.58208 -0.225778,-2.02847 -0.225778,-2.02847 0,0 0.254,-0.37747 0.691445,-0.508"
       style="fill:#231f20;fill-opacity:1;fill-rule:nonzero;stroke:none;stroke-width:0.35277775"
       id="path267"
       inkscape:connector-curvature="0" />
    <path
       d="m 43.753735,152.493 v 13.22917 l 12.523611,-1.63654 v -13.22916 z"
       style="fill:none;stroke:#231f20;stroke-width:0.48506942;stroke-linecap:butt;stroke-linejoin:miter;stroke-miterlimit:10;stroke-dasharray:none;stroke-opacity:1"
       id="path183"
       inkscape:connector-curvature="0" />
    <path
       d="m 125.00562,162.82174 c -21.78508,3.96875 -55.487007,-3.96875 -77.272093,0 v -13.22917 c 21.785086,-3.96875 55.487013,3.96875 77.272093,0 z"
       style="fill:#ffffff;fill-opacity:1;fill-rule:nonzero;stroke:none;stroke-width:0.35277775"
       id="path199"
       inkscape:connector-curvature="0" />
    <path
       d="m 125.00561,162.82174 c -21.78508,3.96875 -55.486997,-3.96875 -77.272083,0 v -13.22917 c 9.871929,-1.79844 22.190927,-1.15199 34.739212,-0.27645 15.142904,1.05657 30.619721,2.44676 42.532871,0.27645 z"
       style="fill:none;stroke:#231f20;stroke-width:0.48506942;stroke-linecap:butt;stroke-linejoin:miter;stroke-miterlimit:10;stroke-dasharray:none;stroke-opacity:1"
       id="path203"
       inkscape:connector-curvature="0"
       sodipodi:nodetypes="cccscc" />
    <path
       d="m 125.31532,161.54362 c 0,0 -7.23195,3.05717 -40.451619,0.11748 -23.463246,-2.07645 -35.178291,-0.25647 -36.990863,0.061 m 77.132742,-11.09871 c 0,0 -7.0104,2.83562 -40.230069,-0.10407 -23.463251,-2.07645 -35.178295,-0.25612 -36.990867,0.061"
       style="fill:none;stroke:#231f20;stroke-width:0.26458332;stroke-linecap:butt;stroke-linejoin:miter;stroke-miterlimit:10;stroke-dasharray:none;stroke-opacity:1"
       id="path207-3"
       inkscape:connector-curvature="0" />
    <path
       d="m 69.718884,145.34915 c 0,0 -0.317147,-1.16064 -1.513416,-1.64395 0.212019,0.83961 0.508,1.61573 1.513416,1.64395 m -3.852333,3.10444 c -0.278694,-1.50283 -2.353028,-1.76036 -3.421591,-1.06891 0.370416,-0.99484 1.411111,-1.89795 2.215091,-2.1837 -0.458611,-0.17639 -0.998361,-0.32808 -1.580091,-0.45508 0.684036,-0.52211 2.367138,-0.91722 3.220861,-0.84314 -0.155575,-0.0459 -0.324556,-0.0811 -0.508353,-0.10583 l 0.162278,-0.9772 c -0.0949,-0.81844 -0.836084,-1.75683 -1.718028,-2.32128 -0.437092,-1.25236 -0.01023,-3.5313 0.593019,-4.13808 -0.303741,3.27731 4.324703,5.30225 5.224286,7.71878 -0.507647,-2.06375 -2.649361,-3.42547 -3.650897,-4.68136 -0.317853,-0.8255 -0.01094,-2.19075 0.373592,-2.65289 -0.176389,2.1978 2.144889,3.98991 3.376083,5.25991 1.453796,1.49225 1.837971,2.78695 1.601963,3.82764 0.324204,0.0988 0.765175,0.43039 0.673806,0.96661 0.479425,-0.0952 0.98425,-0.62794 1.110898,-0.96308 0.186971,1.64395 -0.829029,3.34081 -1.918758,3.82411 0,0 0.313619,-0.76905 -0.16228,-1.38289 -0.466018,-0.60325 -1.837971,-0.65264 -2.30399,-0.635 0,0 0.596547,-0.8255 0.381,-1.25941 -0.261056,-0.53975 -2.955925,-0.38806 -4.173361,0.0106 0.41275,-0.0318 1.379714,0.10583 1.710972,0.25753 -0.197555,0.27516 -0.726722,1.44286 -0.380647,1.80975 0.292453,0.31397 0.705555,-0.1517 0.758119,-0.21167 -0.0388,0.11289 -0.444147,1.29117 -0.165452,1.5875 0.289277,0.31045 0.941916,0.11642 0.941916,0.11642 -0.434269,1.00189 -2.017889,1.65453 -3.111853,1.61925 0.395112,-0.10936 1.061862,-0.78317 1.171575,-1.19945 -0.293158,0.13406 -1.041047,0.19403 -1.326444,0.13053 0.356306,-0.13405 1.093258,-1.01953 0.906286,-2.04964"
       style="fill:#231f20;fill-opacity:1;fill-rule:nonzero;stroke:none;stroke-width:0.35277775"
       id="path251"
       inkscape:connector-curvature="0" />
    <path
       d="m 47.518685,147.79612 c 0,0 0.642056,-0.46214 0.980722,-0.54681 l 0.560917,0.49742 -0.289278,0.0882 c 0,0 -0.539397,1.76388 -0.321027,2.49413 l 0.352777,1.02306 c 0,0 -1.150055,-0.22931 -1.326444,-0.67028 0,0 -0.370417,-1.98614 0.04233,-2.88572"
       style="fill:#231f20;fill-opacity:1;fill-rule:nonzero;stroke:none;stroke-width:0.35277775"
       id="path263"
       inkscape:connector-curvature="0" />
    <path
       d="m 50.206922,148.12068 0.359481,0.78316 c -0.482953,0.0811 -1.02623,1.98967 -1.02623,1.98967 -1.231195,-0.71261 -0.194028,-2.99156 -0.194028,-2.99156 z"
       style="fill:#231f20;fill-opacity:1;fill-rule:nonzero;stroke:none;stroke-width:0.35277775"
       id="path259"
       inkscape:connector-curvature="0" />
    <text
       xml:space="preserve"
       style="font-style:normal;font-weight:normal;font-size:8.46666622px;line-height:1.25;font-family:sans-serif;letter-spacing:0px;word-spacing:0px;fill:#000000;fill-opacity:1;stroke:none;stroke-width:0.26458332"
       id="text98"
       transform="translate(-0.46772167,-2.1047475)"><textPath
         xlink:href="#path186"
         id="textPath188"
         style="font-style:normal;font-variant:normal;font-weight:normal;font-stretch:normal;font-size:4.58611107px;font-family:Royal;-inkscape-font-specification:Royal">       <tspan
   style="font-style:normal;font-variant:normal;font-weight:normal;font-stretch:normal;font-size:4.58611107px;font-family:Zapfino;-inkscape-font-specification:Zapfino"
   id="tspan34">Ed the Horse</tspan></textPath></text>
    <path
       style="fill:none;stroke:none;stroke-width:0.26458332px;stroke-linecap:butt;stroke-linejoin:miter;stroke-opacity:1"
       d="m 47.872838,161.7221 c 0,0 19.682372,-2.20272 37.310236,0 17.627866,2.20273 34.491576,1.17755 40.132246,-0.17848"
       id="path186"
       inkscape:connector-curvature="0" />
    <path
       d="m 123.34679,164.59667 c -0.22578,-1.22344 -1.08902,-3.21875 -2.76119,-4.27073 -1.38183,-0.86748 -2.58904,-0.6798 -2.59468,-1.1109 -0.0102,-0.54821 1.53881,-0.37853 1.53881,-0.37853 -1.6704,-0.95673 -4.06646,0.21414 -4.40901,-0.33373 -0.20214,-0.32843 1.11513,-0.78951 1.11513,-0.78951 -2.03765,-0.0748 -4.44218,0.97543 -5.40667,1.92828 2.43064,-0.81597 5.85364,-0.34678 7.42597,0.9966 -0.66569,-0.37395 -1.38748,-0.62371 -2.12831,-0.77188 -2.75837,-0.55457 -5.82895,0.26635 -7.6775,1.0354 -2.08633,0.70662 -3.67771,1.75013 -3.67771,1.75013 -1.37725,0.80046 -3.92077,1.54658 -5.645504,0.81668 l -2.7e-4,0.004 c 0,0 2.700164,4.49756 6.018044,2.933 0.24377,-0.13547 0.47695,-0.27517 0.69603,-0.41205 1.81116,-0.98249 3.63502,-2.62149 3.63502,-2.62149 0.63429,-0.44344 2.58727,-1.71521 4.93854,-2.4257 0.52387,-0.15628 1.05551,-0.18874 1.56069,-0.11606 1.31127,0.17815 2.45427,1.01882 2.82927,2.02388 1.01248,-0.17639 3.57893,0.67169 4.54343,1.74308"
       style="fill:#231f20;fill-opacity:1;fill-rule:nonzero;stroke:none;stroke-width:0.35277775"
       id="path247"
       inkscape:connector-curvature="0" />
  </g>
</svg>
